<?xml version="1.0" encoding="UTF-8"?>
<!-- Generated by Pixelmator Pro 3.6.4 -->
<svg width="80" height="80" viewBox="0 0 80 80" xmlns="http://www.w3.org/2000/svg">
    <path id="Path" fill="#000000" stroke="none" d="M 76.845581 34.816772 C 76.771667 34.778809 76.697388 34.740723 76.622681 34.702576 C 73.513916 33.116028 72.46582 29.20459 74.364807 26.276184 C 74.4104 26.205872 74.45575 26.135803 74.500732 26.065979 C 77.062927 22.091919 74.040283 16.856506 69.317505 17.088379 C 69.234558 17.092468 69.151245 17.096619 69.067505 17.100952 C 65.581909 17.281372 62.718567 14.417908 62.898926 10.932373 C 62.903259 10.848694 62.907471 10.765381 62.91156 10.682434 C 63.143494 5.959656 57.90802 2.936951 53.93396 5.499207 C 53.864136 5.544189 53.794067 5.589478 53.723694 5.635132 C 50.795349 7.534119 46.88385 6.486023 45.297302 3.377258 C 45.259216 3.302612 45.221191 3.228333 45.183228 3.15448 C 43.022705 -1.051514 36.977295 -1.051514 34.816772 3.15448 C 34.778809 3.228333 34.740784 3.302612 34.702698 3.377258 C 33.11615 6.486023 29.204651 7.534119 26.276306 5.635132 C 26.205933 5.589478 26.135864 5.544189 26.06604 5.499146 C 22.091919 2.936951 16.856506 5.959656 17.08844 10.682373 C 17.092468 10.76532 17.09668 10.848694 17.101013 10.932434 C 17.281433 14.417969 14.41803 17.281372 10.932495 17.100952 C 10.848755 17.096619 10.765381 17.092468 10.682434 17.088379 C 5.959717 16.856506 2.937073 22.091919 5.499268 26.065979 C 5.54425 26.135803 5.589539 26.205872 5.635193 26.276184 C 7.53418 29.20459 6.486084 33.116089 3.377319 34.702637 C 3.302612 34.740723 3.228333 34.778809 3.154419 34.816772 C -1.051514 36.977295 -1.051514 43.022644 3.154419 45.183228 C 3.228333 45.221191 3.302612 45.259216 3.377319 45.297363 C 6.486084 46.883911 7.53418 50.795349 5.635193 53.723755 C 5.5896 53.794067 5.54425 53.864136 5.499268 53.933899 C 2.937073 57.907959 5.959778 63.143433 10.682495 62.91156 C 10.765442 62.907471 10.848755 62.903259 10.932495 62.898926 C 14.41803 62.718567 17.281433 65.58197 17.101074 69.067505 C 17.096741 69.151184 17.092529 69.234558 17.08844 69.317444 C 16.856567 74.040222 22.09198 77.062927 26.06604 74.500671 C 26.135864 74.455688 26.205872 74.4104 26.276245 74.364807 C 29.20459 72.46582 33.116089 73.513855 34.702637 76.62262 C 34.740784 76.697327 34.778809 76.771667 34.816772 76.845581 C 36.977295 81.051514 43.022705 81.051514 45.183228 76.845581 C 45.221191 76.771667 45.259216 76.697327 45.297363 76.62262 C 46.883911 73.513855 50.79541 72.46582 53.723755 74.364807 C 53.794128 74.4104 53.864136 74.455688 53.93396 74.500671 C 57.90802 77.062927 63.143494 74.040222 62.91156 69.317444 C 62.907471 69.234497 62.903259 69.151245 62.898926 69.067505 C 62.718567 65.58197 65.58197 62.718567 69.067505 62.898926 C 69.151184 62.903259 69.234558 62.907471 69.317444 62.91156 C 74.040222 63.143433 77.062866 57.907959 74.500671 53.933899 C 74.455688 53.864136 74.4104 53.794067 74.364807 53.723755 C 72.46582 50.79541 73.513916 46.883911 76.622681 45.297363 C 76.697388 45.259216 76.771667 45.221191 76.845581 45.183228 C 81.051575 43.022644 81.051575 36.977295 76.845581 34.816772 Z"/>
</svg>
