<?xml version="1.0" encoding="UTF-8"?>
<!-- Generated by Pixelmator Pro 3.6.4 -->
<svg width="80" height="80" viewBox="0 0 80 80" xmlns="http://www.w3.org/2000/svg">
    <path id="Path" fill="#000000" stroke="none" d="M 56.568542 0 C 46.831726 7.604553 33.168274 7.604553 23.431458 0 C 21.923706 12.262207 12.262207 21.923706 0 23.431458 C 7.604553 33.168274 7.604553 46.831665 0 56.568481 L 0 56.568542 C 12.262207 58.076294 21.923706 67.737793 23.431458 79.999939 L 23.431458 80 C 33.168274 72.395447 46.831726 72.395447 56.568542 80 L 56.568542 79.999939 C 58.076294 67.737793 67.737793 58.076294 80 56.568542 L 80 56.568481 C 72.395447 46.831665 72.395447 33.168274 80 23.431458 C 67.737793 21.923706 58.076294 12.262207 56.568542 0 Z"/>
</svg>
