<?xml version="1.0" encoding="UTF-8"?>
<!-- Generated by Pixelmator Pro 3.6.4 -->
<svg width="80" height="80" viewBox="0 0 80 80" xmlns="http://www.w3.org/2000/svg">
    <path id="Path" fill="#000000" stroke="none" d="M 16.4505 49.754517 L 6.089661 62.658142 L 21.976013 58.023987 L 17.341797 73.910339 L 30.245483 63.5495 L 32.043518 80 L 40 65.489746 L 47.956482 80 L 49.754517 63.5495 L 62.658203 73.910339 L 58.023987 58.023987 L 73.910339 62.658142 L 63.5495 49.754517 L 80 47.956482 L 65.489807 40 L 80 32.043518 L 63.5495 30.245483 L 73.910339 17.341797 L 58.023987 21.976013 L 62.658203 6.0896 L 49.754517 16.4505 L 47.956482 0 L 40 14.510193 L 32.043518 0 L 30.245483 16.4505 L 17.341797 6.0896 L 21.976013 21.976013 L 6.089661 17.341797 L 16.4505 30.245483 L 0 32.043518 L 14.510193 40 L 0 47.956482 Z"/>
</svg>
